# MagicaVoxel @ Ephtracy

# material
mtllib pillar1.mtl
usemtl palette

# normals
vn -1 0 0
vn 1 0 0
vn 0 0 1
vn 0 0 -1
vn 0 -1 0
vn 0 1 0

# texcoords
vt 0.00976563 0.5
vt 0.0410156 0.5
vt 0.0527344 0.5
vt 0.0722656 0.5

# verts
v -3 0 2
v -3 0 -5
v -3 1 2
v -3 1 -5
v -2 1 1
v -2 1 -2
v -2 1 -3
v -2 1 -4
v -2 2 -0
v -2 2 -2
v -2 2 -3
v -2 3 1
v -2 3 -0
v -2 3 -1
v -2 3 -2
v -2 3 -3
v -2 3 -4
v -2 4 -0
v -2 4 -1
v -2 4 -2
v -2 4 -3
v -2 5 -1
v -2 5 -2
v -2 6 1
v -2 6 -0
v -2 7 -3
v -2 7 -4
v -2 10 -3
v -2 10 -4
v -2 15 2
v -2 15 1
v -2 17 3
v -2 17 2
v -2 18 4
v -2 18 3
v -2 19 4
v -2 19 3
v -2 19 2
v -2 19 -0
v -2 20 3
v -2 20 2
v -2 21 -1
v -2 21 -3
v -2 22 -0
v -2 22 -1
v -2 22 -3
v -2 22 -4
v -1 7 -3
v -1 7 -4
v -1 10 -3
v -1 10 -4
v -1 19 1
v -1 19 -0
v -1 21 -1
v -1 21 -3
v -1 22 1
v -1 22 -0
v -1 22 -1
v -1 22 -3
v 0 18 4
v 0 18 3
v 0 19 3
v 0 20 4
v 0 20 3
v 1 18 5
v 1 18 4
v 1 19 6
v 1 19 5
v 1 20 6
v 1 20 5
v 1 20 4
v 1 21 5
v 1 21 4
v 1 22 1
v 1 22 -0
v 1 23 1
v 1 23 -0
v -1 18 4
v -1 18 3
v -1 19 4
v -1 19 3
v -1 21 -3
v -1 21 -4
v -1 22 -3
v -1 22 -4
v 1 9 1
v 1 9 -0
v 1 13 1
v 1 13 -0
v 1 13 -3
v 1 13 -4
v 1 18 -3
v 1 18 -4
v 1 21 -1
v 1 21 -3
v 1 22 -1
v 1 22 -3
v 2 1 1
v 2 1 -3
v 2 1 -4
v 2 3 -0
v 2 3 -3
v 2 6 1
v 2 6 -0
v 2 6 -3
v 2 6 -4
v 2 7 -2
v 2 7 -3
v 2 8 1
v 2 8 -0
v 2 9 1
v 2 9 -0
v 2 9 -1
v 2 9 -2
v 2 9 -3
v 2 13 1
v 2 13 -0
v 2 13 -1
v 2 13 -3
v 2 13 -4
v 2 14 1
v 2 14 -0
v 2 15 2
v 2 15 1
v 2 15 -0
v 2 15 -1
v 2 17 3
v 2 17 2
v 2 18 5
v 2 18 3
v 2 18 2
v 2 18 -0
v 2 18 -1
v 2 18 -3
v 2 18 -4
v 2 19 6
v 2 19 5
v 2 19 4
v 2 19 3
v 2 19 2
v 2 19 1
v 2 20 6
v 2 20 5
v 2 20 4
v 2 20 2
v 2 21 5
v 2 21 4
v 2 21 -1
v 2 21 -4
v 2 22 -0
v 2 22 -1
v 2 23 1
v 2 23 -0
v 3 0 2
v 3 0 -5
v 3 1 2
v 3 1 -5
v 1 19 6
v 1 20 6
v 2 19 6
v 2 20 6
v 1 18 5
v 1 19 5
v 1 20 5
v 1 21 5
v 2 18 5
v 2 19 5
v 2 20 5
v 2 21 5
v -2 18 4
v -2 19 4
v -1 18 4
v -1 19 4
v 0 18 4
v 0 20 4
v 1 18 4
v 1 20 4
v -2 17 3
v -2 18 3
v -2 19 3
v -2 20 3
v -1 17 3
v -1 18 3
v -1 19 3
v 0 18 3
v 0 19 3
v 0 20 3
v 1 17 3
v 1 18 3
v 2 17 3
v 2 18 3
v -3 0 2
v -3 1 2
v -2 15 2
v -2 17 2
v -1 15 2
v -1 17 2
v 1 15 2
v 1 17 2
v 2 15 2
v 2 17 2
v 3 0 2
v 3 1 2
v -2 1 1
v -2 3 1
v -2 6 1
v -2 15 1
v -1 2 1
v -1 3 1
v -1 6 1
v -1 15 1
v -1 19 1
v -1 22 1
v 0 2 1
v 0 3 1
v 0 9 1
v 0 13 1
v 1 3 1
v 1 6 1
v 1 8 1
v 1 9 1
v 1 13 1
v 1 14 1
v 1 15 1
v 1 22 1
v 1 23 1
v 2 1 1
v 2 6 1
v 2 8 1
v 2 9 1
v 2 13 1
v 2 14 1
v 2 15 1
v 2 19 1
v 2 23 1
v -2 19 -0
v -2 22 -0
v -1 19 -0
v -1 22 -0
v 1 9 -0
v 1 13 -0
v 2 9 -0
v 2 13 -0
v -2 21 -3
v -2 22 -3
v -1 21 -3
v -1 22 -3
v 1 20 4
v 1 21 4
v 2 20 4
v 2 21 4
v -2 19 2
v -2 20 2
v 2 19 2
v 2 20 2
v 1 22 -0
v 1 23 -0
v 2 22 -0
v 2 23 -0
v -2 21 -1
v -2 22 -1
v -1 21 -1
v -1 22 -1
v 1 21 -1
v 1 22 -1
v 2 21 -1
v 2 22 -1
v -2 7 -3
v -2 10 -3
v -1 7 -3
v -1 10 -3
v -1 21 -3
v -1 22 -3
v 1 13 -3
v 1 18 -3
v 1 21 -3
v 1 22 -3
v 2 13 -3
v 2 18 -3
v -2 1 -4
v -2 3 -4
v -2 7 -4
v -2 10 -4
v -2 22 -4
v -1 1 -4
v -1 3 -4
v -1 7 -4
v -1 10 -4
v -1 21 -4
v -1 22 -4
v 1 3 -4
v 1 6 -4
v 1 13 -4
v 1 18 -4
v 2 1 -4
v 2 6 -4
v 2 13 -4
v 2 18 -4
v 2 21 -4
v -3 0 -5
v -3 1 -5
v 3 0 -5
v 3 1 -5
v -3 0 2
v 3 0 2
v -2 0 1
v 2 0 1
v -2 0 -4
v 2 0 -4
v -3 0 -5
v 3 0 -5
v -2 10 -3
v -1 10 -3
v -2 10 -4
v -1 10 -4
v 1 13 1
v 2 13 1
v 1 13 -0
v 2 13 -0
v -2 15 2
v -1 15 2
v 1 15 2
v 2 15 2
v -2 15 1
v -1 15 1
v 1 15 1
v 2 15 1
v -2 17 3
v -1 17 3
v 1 17 3
v 2 17 3
v -2 17 2
v -1 17 2
v 1 17 2
v 2 17 2
v 1 18 5
v 2 18 5
v -2 18 4
v -1 18 4
v 0 18 4
v 1 18 4
v -2 18 3
v -1 18 3
v 0 18 3
v 1 18 3
v 2 18 3
v 1 18 -3
v 2 18 -3
v 1 18 -4
v 2 18 -4
v 1 19 6
v 2 19 6
v 1 19 5
v 2 19 5
v -3 1 2
v 3 1 2
v -2 1 1
v 2 1 1
v -2 1 -2
v -2 1 -3
v 2 1 -3
v -2 1 -4
v -1 1 -4
v 2 1 -4
v -3 1 -5
v 3 1 -5
v -2 7 -3
v -1 7 -3
v -2 7 -4
v -1 7 -4
v 1 9 1
v 2 9 1
v 1 9 -0
v 2 9 -0
v 1 13 -3
v 2 13 -3
v 1 13 -4
v 2 13 -4
v -2 19 4
v -1 19 4
v -2 19 3
v -1 19 3
v -2 19 2
v 2 19 2
v -1 19 1
v 2 19 1
v -2 19 -0
v -1 19 -0
v 1 20 6
v 2 20 6
v 1 20 5
v 2 20 5
v 0 20 4
v 1 20 4
v 2 20 4
v -2 20 3
v 0 20 3
v 1 20 3
v -2 20 2
v 2 20 2
v 1 21 5
v 2 21 5
v 1 21 4
v 2 21 4
v -2 21 -1
v -1 21 -1
v 1 21 -1
v 2 21 -1
v -2 21 -3
v -1 21 -3
v 1 21 -3
v -1 21 -4
v 2 21 -4
v -1 22 1
v 1 22 1
v -2 22 -0
v -1 22 -0
v 1 22 -0
v 2 22 -0
v -2 22 -1
v -1 22 -1
v 1 22 -1
v 2 22 -1
v -2 22 -3
v -1 22 -3
v 1 22 -3
v -2 22 -4
v -1 22 -4
v 1 23 1
v 2 23 1
v 1 23 -0
v 2 23 -0

# faces
f 3/3/1 2/3/1 1/3/1
f 4/3/1 2/3/1 3/3/1
f 9/4/1 6/4/1 5/4/1
f 10/2/1 7/2/1 6/2/1
f 10/4/1 6/4/1 9/4/1
f 11/4/1 8/4/1 7/4/1
f 11/2/1 7/2/1 10/2/1
f 12/4/1 9/4/1 5/4/1
f 13/2/1 10/2/1 9/2/1
f 13/4/1 9/4/1 12/4/1
f 14/2/1 10/2/1 13/2/1
f 15/4/1 11/4/1 10/4/1
f 15/2/1 10/2/1 14/2/1
f 16/4/1 8/4/1 11/4/1
f 16/4/1 11/4/1 15/4/1
f 17/4/1 8/4/1 16/4/1
f 18/2/1 14/2/1 13/2/1
f 18/2/1 13/2/1 12/2/1
f 19/4/1 15/4/1 14/4/1
f 19/2/1 14/2/1 18/2/1
f 19/4/1 16/4/1 15/4/1
f 20/4/1 16/4/1 19/4/1
f 21/1/1 17/1/1 16/1/1
f 21/4/1 16/4/1 20/4/1
f 22/4/1 20/4/1 19/4/1
f 22/1/1 19/1/1 18/1/1
f 23/1/1 21/1/1 20/1/1
f 23/4/1 20/4/1 22/4/1
f 24/2/1 18/2/1 12/2/1
f 25/1/1 22/1/1 18/1/1
f 25/2/1 18/2/1 24/2/1
f 25/1/1 23/1/1 22/1/1
f 26/1/1 21/1/1 23/1/1
f 26/1/1 23/1/1 25/1/1
f 26/1/1 25/1/1 24/1/1
f 26/1/1 17/1/1 21/1/1
f 27/1/1 17/1/1 26/1/1
f 28/1/1 26/1/1 24/1/1
f 31/1/1 28/1/1 24/1/1
f 31/1/1 29/1/1 28/1/1
f 33/1/1 31/1/1 30/1/1
f 35/1/1 33/1/1 32/1/1
f 36/4/1 35/4/1 34/4/1
f 37/1/1 33/1/1 35/1/1
f 37/4/1 35/4/1 36/4/1
f 38/1/1 31/1/1 33/1/1
f 38/1/1 33/1/1 37/1/1
f 39/1/1 29/1/1 31/1/1
f 39/1/1 31/1/1 38/1/1
f 40/1/1 38/1/1 37/1/1
f 41/1/1 38/1/1 40/1/1
f 42/1/1 29/1/1 39/1/1
f 43/1/1 29/1/1 42/1/1
f 44/1/1 42/1/1 39/1/1
f 45/1/1 42/1/1 44/1/1
f 46/1/1 29/1/1 43/1/1
f 47/1/1 29/1/1 46/1/1
f 50/1/1 49/1/1 48/1/1
f 51/1/1 49/1/1 50/1/1
f 56/1/1 53/1/1 52/1/1
f 57/1/1 53/1/1 56/1/1
f 58/1/1 55/1/1 54/1/1
f 59/1/1 55/1/1 58/1/1
f 62/4/1 61/4/1 60/4/1
f 63/4/1 62/4/1 60/4/1
f 64/4/1 62/4/1 63/4/1
f 68/4/1 66/4/1 65/4/1
f 69/4/1 68/4/1 67/4/1
f 70/4/1 66/4/1 68/4/1
f 70/4/1 68/4/1 69/4/1
f 71/4/1 66/4/1 70/4/1
f 72/4/1 71/4/1 70/4/1
f 73/4/1 71/4/1 72/4/1
f 76/1/1 75/1/1 74/1/1
f 77/1/1 75/1/1 76/1/1
f 78/4/2 79/4/2 80/4/2
f 80/4/2 79/4/2 81/4/2
f 82/1/2 83/1/2 84/1/2
f 84/1/2 83/1/2 85/1/2
f 86/2/2 87/2/2 88/2/2
f 88/2/2 87/2/2 89/2/2
f 90/1/2 91/1/2 92/1/2
f 92/1/2 91/1/2 93/1/2
f 94/1/2 95/1/2 96/1/2
f 96/1/2 95/1/2 97/1/2
f 98/4/2 99/4/2 101/4/2
f 99/2/2 100/2/2 102/2/2
f 101/4/2 99/4/2 102/4/2
f 98/4/2 101/4/2 103/4/2
f 101/1/2 102/1/2 104/1/2
f 103/4/2 101/4/2 104/4/2
f 102/2/2 100/2/2 105/2/2
f 104/1/2 102/1/2 105/1/2
f 105/2/2 100/2/2 106/2/2
f 103/1/2 104/1/2 107/1/2
f 104/1/2 105/1/2 107/1/2
f 105/1/2 106/1/2 107/1/2
f 107/1/2 106/1/2 108/1/2
f 103/1/2 107/1/2 109/1/2
f 109/1/2 107/1/2 110/1/2
f 109/2/2 110/2/2 111/2/2
f 110/1/2 107/1/2 112/1/2
f 111/2/2 110/2/2 112/2/2
f 112/1/2 107/1/2 113/1/2
f 107/4/2 108/4/2 114/4/2
f 113/1/2 107/1/2 114/1/2
f 108/1/2 106/1/2 115/1/2
f 114/4/2 108/4/2 115/4/2
f 112/2/2 113/2/2 117/2/2
f 113/1/2 114/1/2 118/1/2
f 114/1/2 115/1/2 118/1/2
f 117/2/2 113/2/2 118/2/2
f 115/1/2 106/1/2 119/1/2
f 118/1/2 115/1/2 119/1/2
f 119/1/2 106/1/2 120/1/2
f 116/2/2 117/2/2 121/2/2
f 117/1/2 118/1/2 122/1/2
f 121/2/2 117/2/2 122/2/2
f 118/1/2 119/1/2 122/1/2
f 121/1/2 122/1/2 124/1/2
f 122/1/2 119/1/2 125/1/2
f 124/1/2 122/1/2 125/1/2
f 125/1/2 119/1/2 126/1/2
f 123/1/2 124/1/2 128/1/2
f 124/1/2 125/1/2 128/1/2
f 127/4/2 128/4/2 130/4/2
f 128/1/2 125/1/2 131/1/2
f 130/4/2 128/4/2 131/4/2
f 125/4/2 126/4/2 132/4/2
f 131/1/2 125/1/2 132/1/2
f 126/1/2 119/1/2 133/1/2
f 132/4/2 126/4/2 133/4/2
f 133/1/2 119/1/2 134/1/2
f 129/4/2 130/4/2 137/4/2
f 137/4/2 130/4/2 138/4/2
f 131/1/2 132/1/2 139/1/2
f 138/4/2 130/4/2 139/4/2
f 130/1/2 131/1/2 139/1/2
f 134/1/2 135/1/2 139/1/2
f 132/1/2 133/1/2 139/1/2
f 133/1/2 134/1/2 139/1/2
f 139/1/2 135/1/2 140/1/2
f 140/1/2 135/1/2 141/1/2
f 137/4/2 138/4/2 142/4/2
f 136/4/2 137/4/2 142/4/2
f 142/4/2 138/4/2 143/4/2
f 139/1/2 140/1/2 144/1/2
f 143/4/2 138/4/2 144/4/2
f 138/1/2 139/1/2 144/1/2
f 144/1/2 140/1/2 145/1/2
f 143/4/2 144/4/2 146/4/2
f 146/4/2 144/4/2 147/4/2
f 141/1/2 135/1/2 148/1/2
f 148/1/2 135/1/2 149/1/2
f 141/1/2 148/1/2 150/1/2
f 150/1/2 148/1/2 151/1/2
f 141/1/2 150/1/2 152/1/2
f 152/1/2 150/1/2 153/1/2
f 154/3/2 155/3/2 156/3/2
f 156/3/2 155/3/2 157/3/2
f 160/4/3 159/4/3 158/4/3
f 161/4/3 159/4/3 160/4/3
f 166/4/3 163/4/3 162/4/3
f 167/4/3 163/4/3 166/4/3
f 168/4/3 165/4/3 164/4/3
f 169/4/3 165/4/3 168/4/3
f 172/4/3 171/4/3 170/4/3
f 173/4/3 171/4/3 172/4/3
f 176/4/3 175/4/3 174/4/3
f 177/4/3 175/4/3 176/4/3
f 182/1/3 179/1/3 178/1/3
f 183/1/3 179/1/3 182/1/3
f 184/1/3 181/1/3 180/1/3
f 185/2/3 183/2/3 182/2/3
f 185/4/3 184/4/3 183/4/3
f 186/1/3 181/1/3 184/1/3
f 186/4/3 184/4/3 185/4/3
f 187/1/3 181/1/3 186/1/3
f 188/2/3 185/2/3 182/2/3
f 189/2/3 185/2/3 188/2/3
f 190/4/3 189/4/3 188/4/3
f 191/4/3 189/4/3 190/4/3
f 196/1/3 195/1/3 194/1/3
f 197/1/3 195/1/3 196/1/3
f 198/2/3 197/2/3 196/2/3
f 199/2/3 197/2/3 198/2/3
f 200/1/3 199/1/3 198/1/3
f 201/1/3 199/1/3 200/1/3
f 202/3/3 193/3/3 192/3/3
f 203/3/3 193/3/3 202/3/3
f 208/4/3 205/4/3 204/4/3
f 209/2/3 206/2/3 205/2/3
f 209/4/3 205/4/3 208/4/3
f 210/1/3 207/1/3 206/1/3
f 210/2/3 206/2/3 209/2/3
f 211/1/3 207/1/3 210/1/3
f 214/1/3 209/1/3 208/1/3
f 214/4/3 208/4/3 204/4/3
f 214/1/3 211/1/3 210/1/3
f 214/1/3 210/1/3 209/1/3
f 215/1/3 211/1/3 214/1/3
f 216/1/3 211/1/3 215/1/3
f 217/1/3 211/1/3 216/1/3
f 218/4/3 215/4/3 214/4/3
f 218/1/3 216/1/3 215/1/3
f 219/1/3 216/1/3 218/1/3
f 220/1/3 216/1/3 219/1/3
f 221/2/3 217/2/3 216/2/3
f 221/1/3 216/1/3 220/1/3
f 222/1/3 211/1/3 217/1/3
f 222/2/3 217/2/3 221/2/3
f 223/1/3 211/1/3 222/1/3
f 224/1/3 211/1/3 223/1/3
f 225/1/3 213/1/3 212/1/3
f 227/4/3 214/4/3 204/4/3
f 227/4/3 218/4/3 214/4/3
f 227/4/3 219/4/3 218/4/3
f 228/1/3 220/1/3 219/1/3
f 228/4/3 219/4/3 227/4/3
f 229/2/3 221/2/3 220/2/3
f 229/1/3 220/1/3 228/1/3
f 230/2/3 221/2/3 229/2/3
f 231/2/3 223/2/3 222/2/3
f 232/1/3 224/1/3 223/1/3
f 232/2/3 223/2/3 231/2/3
f 233/1/3 224/1/3 232/1/3
f 234/1/3 226/1/3 225/1/3
f 234/1/3 225/1/3 212/1/3
f 235/1/3 226/1/3 234/1/3
f 238/1/3 237/1/3 236/1/3
f 239/1/3 237/1/3 238/1/3
f 242/2/3 241/2/3 240/2/3
f 243/2/3 241/2/3 242/2/3
f 246/1/3 245/1/3 244/1/3
f 247/1/3 245/1/3 246/1/3
f 248/4/4 249/4/4 250/4/4
f 250/4/4 249/4/4 251/4/4
f 252/1/4 253/1/4 254/1/4
f 254/1/4 253/1/4 255/1/4
f 256/1/4 257/1/4 258/1/4
f 258/1/4 257/1/4 259/1/4
f 260/1/4 261/1/4 262/1/4
f 262/1/4 261/1/4 263/1/4
f 264/1/4 265/1/4 266/1/4
f 266/1/4 265/1/4 267/1/4
f 268/1/4 269/1/4 270/1/4
f 270/1/4 269/1/4 271/1/4
f 272/1/4 273/1/4 276/1/4
f 276/1/4 273/1/4 277/1/4
f 274/1/4 275/1/4 278/1/4
f 278/1/4 275/1/4 279/1/4
f 280/4/4 281/4/4 285/4/4
f 281/1/4 282/1/4 286/1/4
f 285/4/4 281/4/4 286/4/4
f 286/1/4 282/1/4 287/1/4
f 283/1/4 284/1/4 288/1/4
f 288/1/4 284/1/4 289/1/4
f 289/1/4 284/1/4 290/1/4
f 286/1/4 287/1/4 291/1/4
f 285/2/4 286/2/4 291/2/4
f 288/1/4 289/1/4 291/1/4
f 287/1/4 288/1/4 291/1/4
f 291/1/4 289/1/4 292/1/4
f 292/1/4 289/1/4 293/1/4
f 293/1/4 289/1/4 294/1/4
f 285/2/4 291/2/4 295/2/4
f 291/2/4 292/2/4 295/2/4
f 292/1/4 293/1/4 296/1/4
f 295/2/4 292/2/4 296/2/4
f 296/1/4 293/1/4 297/1/4
f 294/1/4 289/1/4 298/1/4
f 298/1/4 289/1/4 299/1/4
f 300/3/4 301/3/4 302/3/4
f 302/3/4 301/3/4 303/3/4
f 306/3/5 305/3/5 304/3/5
f 307/3/5 305/3/5 306/3/5
f 308/3/5 306/3/5 304/3/5
f 308/1/5 307/1/5 306/1/5
f 309/3/5 305/3/5 307/3/5
f 309/1/5 307/1/5 308/1/5
f 310/3/5 308/3/5 304/3/5
f 310/3/5 309/3/5 308/3/5
f 311/3/5 305/3/5 309/3/5
f 311/3/5 309/3/5 310/3/5
f 314/1/5 313/1/5 312/1/5
f 315/1/5 313/1/5 314/1/5
f 318/2/5 317/2/5 316/2/5
f 319/2/5 317/2/5 318/2/5
f 324/1/5 321/1/5 320/1/5
f 325/2/5 322/2/5 321/2/5
f 325/1/5 321/1/5 324/1/5
f 326/1/5 323/1/5 322/1/5
f 326/2/5 322/2/5 325/2/5
f 327/1/5 323/1/5 326/1/5
f 332/1/5 329/1/5 328/1/5
f 333/2/5 330/2/5 329/2/5
f 333/1/5 329/1/5 332/1/5
f 334/4/5 331/4/5 330/4/5
f 334/2/5 330/2/5 333/2/5
f 335/4/5 331/4/5 334/4/5
f 341/4/5 337/4/5 336/4/5
f 342/4/5 339/4/5 338/4/5
f 343/4/5 339/4/5 342/4/5
f 344/4/5 341/4/5 340/4/5
f 345/4/5 337/4/5 341/4/5
f 345/4/5 341/4/5 344/4/5
f 346/4/5 337/4/5 345/4/5
f 349/1/5 348/1/5 347/1/5
f 350/1/5 348/1/5 349/1/5
f 353/4/5 352/4/5 351/4/5
f 354/4/5 352/4/5 353/4/5
f 355/3/6 356/3/6 357/3/6
f 357/3/6 356/3/6 358/3/6
f 355/3/6 357/3/6 359/3/6
f 355/3/6 359/3/6 360/3/6
f 358/3/6 356/3/6 361/3/6
f 355/3/6 360/3/6 362/3/6
f 361/3/6 356/3/6 364/3/6
f 362/3/6 363/3/6 365/3/6
f 363/3/6 364/3/6 365/3/6
f 355/3/6 362/3/6 365/3/6
f 364/3/6 356/3/6 366/3/6
f 365/3/6 364/3/6 366/3/6
f 367/1/6 368/1/6 369/1/6
f 369/1/6 368/1/6 370/1/6
f 371/2/6 372/2/6 373/2/6
f 373/2/6 372/2/6 374/2/6
f 375/1/6 376/1/6 377/1/6
f 377/1/6 376/1/6 378/1/6
f 379/4/6 380/4/6 381/4/6
f 381/4/6 380/4/6 382/4/6
f 383/1/6 384/1/6 385/1/6
f 385/1/6 384/1/6 386/1/6
f 383/1/6 385/1/6 387/1/6
f 387/1/6 385/1/6 388/1/6
f 389/4/6 390/4/6 391/4/6
f 391/4/6 390/4/6 392/4/6
f 393/4/6 394/4/6 397/4/6
f 394/1/6 395/1/6 398/1/6
f 397/4/6 394/4/6 398/4/6
f 396/1/6 397/1/6 399/1/6
f 397/1/6 398/1/6 399/1/6
f 398/1/6 395/1/6 400/1/6
f 399/1/6 398/1/6 400/1/6
f 401/4/6 402/4/6 403/4/6
f 403/4/6 402/4/6 404/4/6
f 405/1/6 406/1/6 409/1/6
f 409/1/6 406/1/6 410/1/6
f 407/1/6 408/1/6 411/1/6
f 410/1/6 411/1/6 412/1/6
f 411/1/6 408/1/6 413/1/6
f 412/1/6 411/1/6 413/1/6
f 414/1/6 415/1/6 417/1/6
f 417/1/6 415/1/6 418/1/6
f 416/1/6 417/1/6 420/1/6
f 418/1/6 419/1/6 420/1/6
f 417/1/6 418/1/6 420/1/6
f 420/1/6 419/1/6 421/1/6
f 421/1/6 419/1/6 422/1/6
f 422/1/6 419/1/6 423/1/6
f 421/1/6 422/1/6 425/1/6
f 425/1/6 422/1/6 426/1/6
f 424/1/6 425/1/6 427/1/6
f 427/1/6 425/1/6 428/1/6
f 429/1/6 430/1/6 431/1/6
f 431/1/6 430/1/6 432/1/6
