# MagicaVoxel @ Ephtracy

# material
mtllib box.mtl
usemtl palette

# normals
vn -1 0 0
vn 1 0 0
vn 0 0 1
vn 0 0 -1
vn 0 -1 0
vn 0 1 0

# texcoords
vt 0.107422 0.5
vt 0.138672 0.5
vt 0.169922 0.5

# verts
v -7 0 10
v -7 0 -10
v -7 1 9
v -7 1 -9
v -7 8 9
v -7 8 -9
v -7 9 10
v -7 9 -10
v -6 1 9
v -6 1 8
v -6 1 4
v -6 1 2
v -6 1 1
v -6 1 -1
v -6 1 -9
v -6 2 4
v -6 2 3
v -6 2 2
v -6 2 1
v -6 2 -0
v -6 2 -1
v -6 3 3
v -6 3 -0
v -6 4 9
v -6 4 8
v -6 4 -8
v -6 4 -9
v -6 6 -6
v -6 6 -8
v -6 7 9
v -6 7 8
v -6 7 -5
v -6 7 -6
v -6 8 9
v -6 8 8
v -6 8 -5
v -6 8 -9
v 6 0 9
v 6 0 -9
v 6 1 10
v 6 1 9
v 6 1 8
v 6 1 -9
v 6 1 -10
v 6 3 9
v 6 5 -9
v 6 8 10
v 6 8 9
v 6 8 -0
v 6 8 -6
v 6 8 -8
v 6 8 -9
v 6 8 -10
v 6 9 9
v 6 9 -9
v -6 0 9
v -6 0 -9
v -6 1 10
v -6 1 9
v -6 1 8
v -6 1 4
v -6 1 2
v -6 1 1
v -6 1 -1
v -6 1 -9
v -6 1 -10
v -6 4 9
v -6 4 -9
v -6 7 9
v -6 8 10
v -6 8 9
v -6 8 8
v -6 8 -5
v -6 8 -9
v -6 8 -10
v -6 9 9
v -6 9 -9
v 6 1 9
v 6 1 8
v 6 1 -9
v 6 3 9
v 6 3 8
v 6 3 2
v 6 3 -1
v 6 4 2
v 6 4 -1
v 6 5 -8
v 6 5 -9
v 6 7 -0
v 6 7 -6
v 6 8 9
v 6 8 -0
v 6 8 -6
v 6 8 -8
v 6 8 -9
v 7 0 10
v 7 0 -10
v 7 1 9
v 7 1 -9
v 7 8 9
v 7 8 -9
v 7 9 10
v 7 9 -10
v -7 0 10
v -7 9 10
v -6 1 10
v -6 8 10
v 6 1 10
v 6 8 10
v 7 0 10
v 7 9 10
v -6 1 9
v -6 4 9
v -6 7 9
v -6 8 9
v -5 3 9
v -5 4 9
v -4 2 9
v -4 3 9
v -4 4 9
v -3 3 9
v -3 4 9
v -2 7 9
v -2 8 9
v 0 1 9
v 0 2 9
v 1 4 9
v 1 6 9
v 2 4 9
v 2 6 9
v 3 1 9
v 3 2 9
v 4 2 9
v 4 6 9
v 5 3 9
v 5 6 9
v 6 1 9
v 6 3 9
v 6 8 9
v -7 1 -9
v -7 8 -9
v -6 0 -9
v -6 1 -9
v -6 4 -9
v -6 8 -9
v -6 9 -9
v -5 1 -9
v -5 8 -9
v 2 1 -9
v 5 8 -9
v 6 0 -9
v 6 1 -9
v 6 5 -9
v 6 8 -9
v 6 9 -9
v 7 1 -9
v 7 8 -9
v -7 1 9
v -7 8 9
v -6 0 9
v -6 1 9
v -6 4 9
v -6 7 9
v -6 8 9
v -6 9 9
v -2 8 9
v 0 1 9
v 3 1 9
v 6 0 9
v 6 1 9
v 6 3 9
v 6 8 9
v 6 9 9
v 7 1 9
v 7 8 9
v -6 1 -9
v -6 4 -9
v -6 8 -9
v -5 1 -9
v -5 2 -9
v -5 4 -9
v -5 8 -9
v 2 1 -9
v 2 2 -9
v 5 5 -9
v 5 8 -9
v 6 1 -9
v 6 5 -9
v 6 8 -9
v -7 0 -10
v -7 9 -10
v -6 1 -10
v -6 8 -10
v 6 1 -10
v 6 8 -10
v 7 0 -10
v 7 9 -10
v -7 0 10
v 7 0 10
v -6 0 9
v 6 0 9
v -6 0 -9
v 6 0 -9
v -7 0 -10
v 7 0 -10
v -6 1 9
v 0 1 9
v 3 1 9
v 6 1 9
v -6 1 8
v 0 1 8
v 3 1 8
v 6 1 8
v -6 1 4
v -5 1 4
v -6 1 2
v -5 1 2
v -6 1 1
v -5 1 1
v -6 1 -1
v -5 1 -1
v -5 1 -8
v 2 1 -8
v -6 1 -9
v -5 1 -9
v 2 1 -9
v 6 1 -9
v -6 8 10
v 6 8 10
v -7 8 9
v -6 8 9
v -2 8 9
v 6 8 9
v 7 8 9
v -6 8 8
v 6 8 -0
v -6 8 -5
v 6 8 -6
v 6 8 -8
v -7 8 -9
v -6 8 -9
v -5 8 -9
v 5 8 -9
v 6 8 -9
v 7 8 -9
v -6 8 -10
v 6 8 -10
v -6 1 10
v 6 1 10
v -7 1 9
v -6 1 9
v 0 1 9
v 3 1 9
v 6 1 9
v 7 1 9
v -6 1 8
v 6 1 8
v -6 1 4
v -6 1 2
v -6 1 1
v -6 1 -1
v -7 1 -9
v -6 1 -9
v -5 1 -9
v 2 1 -9
v 6 1 -9
v 7 1 -9
v -6 1 -10
v 6 1 -10
v -6 8 9
v -2 8 9
v 6 8 9
v -6 8 8
v -2 8 8
v 4 8 2
v 5 8 2
v 4 8 -0
v 5 8 -0
v 6 8 -0
v -1 8 -1
v 2 8 -1
v -1 8 -2
v 2 8 -2
v -6 8 -5
v -5 8 -5
v 5 8 -6
v 6 8 -6
v 5 8 -8
v 6 8 -8
v -6 8 -9
v -5 8 -9
v 5 8 -9
v 6 8 -9
v -7 9 10
v 7 9 10
v -6 9 9
v 6 9 9
v -6 9 -9
v 6 9 -9
v -7 9 -10
v 7 9 -10

# faces
f 3/2/1 2/2/1 1/2/1
f 4/2/1 2/2/1 3/2/1
f 5/2/1 3/2/1 1/2/1
f 6/2/1 2/2/1 4/2/1
f 7/2/1 5/2/1 1/2/1
f 7/2/1 6/2/1 5/2/1
f 8/2/1 2/2/1 6/2/1
f 8/2/1 6/2/1 7/2/1
f 16/1/1 11/1/1 10/1/1
f 16/3/1 12/3/1 11/3/1
f 17/3/1 12/3/1 16/3/1
f 18/1/1 13/1/1 12/1/1
f 18/3/1 12/3/1 17/3/1
f 19/3/1 14/3/1 13/3/1
f 19/1/1 13/1/1 18/1/1
f 20/3/1 14/3/1 19/3/1
f 21/1/1 15/1/1 14/1/1
f 21/3/1 14/3/1 20/3/1
f 22/3/1 20/3/1 19/3/1
f 22/3/1 18/3/1 17/3/1
f 22/1/1 17/1/1 16/1/1
f 22/3/1 19/3/1 18/3/1
f 23/1/1 21/1/1 20/1/1
f 23/3/1 20/3/1 22/3/1
f 24/3/1 10/3/1 9/3/1
f 25/1/1 22/1/1 16/1/1
f 25/3/1 10/3/1 24/3/1
f 25/1/1 16/1/1 10/1/1
f 25/1/1 23/1/1 22/1/1
f 26/1/1 21/1/1 23/1/1
f 26/1/1 23/1/1 25/1/1
f 26/1/1 15/1/1 21/1/1
f 27/1/1 15/1/1 26/1/1
f 28/1/1 25/1/1 24/1/1
f 28/1/1 26/1/1 25/1/1
f 29/3/1 27/3/1 26/3/1
f 29/1/1 26/1/1 28/1/1
f 30/1/1 28/1/1 24/1/1
f 31/1/1 28/1/1 30/1/1
f 32/1/1 28/1/1 31/1/1
f 33/3/1 29/3/1 28/3/1
f 33/1/1 28/1/1 32/1/1
f 34/3/1 31/3/1 30/3/1
f 35/1/1 32/1/1 31/1/1
f 35/3/1 31/3/1 34/3/1
f 36/3/1 33/3/1 32/3/1
f 36/1/1 32/1/1 35/1/1
f 37/3/1 27/3/1 29/3/1
f 37/3/1 33/3/1 36/3/1
f 37/3/1 29/3/1 33/3/1
f 41/2/1 39/2/1 38/2/1
f 42/2/1 39/2/1 41/2/1
f 43/2/1 39/2/1 42/2/1
f 45/2/1 41/2/1 40/2/1
f 46/2/1 44/2/1 43/2/1
f 47/2/1 45/2/1 40/2/1
f 48/2/1 45/2/1 47/2/1
f 52/2/1 44/2/1 46/2/1
f 53/2/1 44/2/1 52/2/1
f 54/2/1 51/2/1 50/2/1
f 54/2/1 52/2/1 51/2/1
f 54/2/1 49/2/1 48/2/1
f 54/2/1 50/2/1 49/2/1
f 55/2/1 52/2/1 54/2/1
f 56/2/2 57/2/2 59/2/2
f 59/2/2 57/2/2 60/2/2
f 60/2/2 57/2/2 61/2/2
f 61/2/2 57/2/2 62/2/2
f 62/2/2 57/2/2 63/2/2
f 63/2/2 57/2/2 64/2/2
f 64/2/2 57/2/2 65/2/2
f 58/2/2 59/2/2 67/2/2
f 65/2/2 66/2/2 68/2/2
f 58/2/2 67/2/2 69/2/2
f 58/2/2 69/2/2 70/2/2
f 70/2/2 69/2/2 71/2/2
f 68/2/2 66/2/2 74/2/2
f 74/2/2 66/2/2 75/2/2
f 72/2/2 73/2/2 76/2/2
f 73/2/2 74/2/2 76/2/2
f 71/2/2 72/2/2 76/2/2
f 76/2/2 74/2/2 77/2/2
f 78/3/2 79/3/2 81/3/2
f 79/1/2 80/1/2 82/1/2
f 81/3/2 79/3/2 82/3/2
f 82/1/2 80/1/2 83/1/2
f 83/1/2 80/1/2 84/1/2
f 81/1/2 82/1/2 85/1/2
f 82/1/2 83/1/2 85/1/2
f 83/3/2 84/3/2 85/3/2
f 84/1/2 80/1/2 86/1/2
f 85/3/2 84/3/2 86/3/2
f 85/1/2 86/1/2 87/1/2
f 86/1/2 80/1/2 87/1/2
f 87/1/2 80/1/2 88/1/2
f 85/1/2 87/1/2 89/1/2
f 89/1/2 87/1/2 90/1/2
f 81/1/2 85/1/2 91/1/2
f 85/1/2 89/1/2 91/1/2
f 89/3/2 90/3/2 92/3/2
f 91/1/2 89/1/2 92/1/2
f 90/1/2 87/1/2 93/1/2
f 92/3/2 90/3/2 93/3/2
f 87/3/2 88/3/2 94/3/2
f 93/1/2 87/1/2 94/1/2
f 94/3/2 88/3/2 95/3/2
f 96/2/2 97/2/2 98/2/2
f 98/2/2 97/2/2 99/2/2
f 96/2/2 98/2/2 100/2/2
f 99/2/2 97/2/2 101/2/2
f 96/2/2 100/2/2 102/2/2
f 100/2/2 101/2/2 102/2/2
f 101/2/2 97/2/2 103/2/2
f 102/2/2 101/2/2 103/2/2
f 106/2/3 105/2/3 104/2/3
f 107/2/3 105/2/3 106/2/3
f 108/2/3 106/2/3 104/2/3
f 109/2/3 105/2/3 107/2/3
f 110/2/3 108/2/3 104/2/3
f 110/2/3 109/2/3 108/2/3
f 111/2/3 105/2/3 109/2/3
f 111/2/3 109/2/3 110/2/3
f 116/3/3 113/3/3 112/3/3
f 117/1/3 114/1/3 113/1/3
f 117/3/3 113/3/3 116/3/3
f 118/3/3 116/3/3 112/3/3
f 119/1/3 117/1/3 116/1/3
f 119/3/3 116/3/3 118/3/3
f 120/1/3 114/1/3 117/1/3
f 120/1/3 117/1/3 119/1/3
f 121/1/3 119/1/3 118/1/3
f 121/3/3 120/3/3 119/3/3
f 122/1/3 114/1/3 120/1/3
f 122/3/3 120/3/3 121/3/3
f 123/3/3 115/3/3 114/3/3
f 123/1/3 114/1/3 122/1/3
f 123/1/3 122/1/3 121/1/3
f 124/3/3 115/3/3 123/3/3
f 125/3/3 118/3/3 112/3/3
f 126/1/3 121/1/3 118/1/3
f 126/3/3 118/3/3 125/3/3
f 126/1/3 123/1/3 121/1/3
f 126/1/3 124/1/3 123/1/3
f 127/1/3 126/1/3 125/1/3
f 127/1/3 124/1/3 126/1/3
f 128/1/3 124/1/3 127/1/3
f 129/1/3 127/1/3 125/1/3
f 129/3/3 128/3/3 127/3/3
f 130/1/3 124/1/3 128/1/3
f 130/3/3 128/3/3 129/3/3
f 131/1/3 129/1/3 125/1/3
f 131/1/3 130/1/3 129/1/3
f 132/1/3 130/1/3 131/1/3
f 133/3/3 132/3/3 131/3/3
f 133/1/3 130/1/3 132/1/3
f 134/1/3 124/1/3 130/1/3
f 134/1/3 130/1/3 133/1/3
f 135/3/3 134/3/3 133/3/3
f 136/1/3 124/1/3 134/1/3
f 136/3/3 134/3/3 135/3/3
f 137/3/3 133/3/3 131/3/3
f 137/3/3 135/3/3 133/3/3
f 138/1/3 136/1/3 135/1/3
f 138/3/3 135/3/3 137/3/3
f 139/1/3 124/1/3 136/1/3
f 139/1/3 136/1/3 138/1/3
f 143/2/3 141/2/3 140/2/3
f 144/2/3 141/2/3 143/2/3
f 145/2/3 141/2/3 144/2/3
f 147/2/3 143/2/3 142/2/3
f 148/2/3 146/2/3 145/2/3
f 149/2/3 147/2/3 142/2/3
f 150/2/3 146/2/3 148/2/3
f 151/2/3 149/2/3 142/2/3
f 152/2/3 149/2/3 151/2/3
f 154/2/3 146/2/3 150/2/3
f 155/2/3 146/2/3 154/2/3
f 156/2/3 153/2/3 152/2/3
f 156/2/3 154/2/3 153/2/3
f 157/2/3 154/2/3 156/2/3
f 158/2/4 159/2/4 161/2/4
f 161/2/4 159/2/4 162/2/4
f 162/2/4 159/2/4 163/2/4
f 163/2/4 159/2/4 164/2/4
f 164/2/4 165/2/4 166/2/4
f 160/2/4 161/2/4 167/2/4
f 160/2/4 167/2/4 168/2/4
f 160/2/4 168/2/4 169/2/4
f 169/2/4 168/2/4 170/2/4
f 166/2/4 165/2/4 172/2/4
f 172/2/4 165/2/4 173/2/4
f 170/2/4 171/2/4 174/2/4
f 171/2/4 172/2/4 174/2/4
f 174/2/4 172/2/4 175/2/4
f 176/1/4 177/1/4 179/1/4
f 179/1/4 177/1/4 180/1/4
f 177/3/4 178/3/4 181/3/4
f 180/1/4 177/1/4 181/1/4
f 181/3/4 178/3/4 182/3/4
f 179/3/4 180/3/4 183/3/4
f 180/1/4 181/1/4 184/1/4
f 183/3/4 180/3/4 184/3/4
f 181/1/4 182/1/4 184/1/4
f 183/1/4 184/1/4 185/1/4
f 184/1/4 182/1/4 185/1/4
f 185/1/4 182/1/4 186/1/4
f 183/1/4 185/1/4 187/1/4
f 185/3/4 186/3/4 188/3/4
f 187/1/4 185/1/4 188/1/4
f 188/3/4 186/3/4 189/3/4
f 190/2/4 191/2/4 192/2/4
f 192/2/4 191/2/4 193/2/4
f 190/2/4 192/2/4 194/2/4
f 193/2/4 191/2/4 195/2/4
f 190/2/4 194/2/4 196/2/4
f 194/2/4 195/2/4 196/2/4
f 195/2/4 191/2/4 197/2/4
f 196/2/4 195/2/4 197/2/4
f 200/2/5 199/2/5 198/2/5
f 201/2/5 199/2/5 200/2/5
f 202/2/5 200/2/5 198/2/5
f 203/2/5 199/2/5 201/2/5
f 204/2/5 202/2/5 198/2/5
f 204/2/5 203/2/5 202/2/5
f 205/2/5 199/2/5 203/2/5
f 205/2/5 203/2/5 204/2/5
f 210/3/5 207/3/5 206/3/5
f 211/1/5 208/1/5 207/1/5
f 211/3/5 207/3/5 210/3/5
f 212/3/5 209/3/5 208/3/5
f 212/1/5 208/1/5 211/1/5
f 213/3/5 209/3/5 212/3/5
f 214/1/5 211/1/5 210/1/5
f 214/1/5 212/1/5 211/1/5
f 214/1/5 213/1/5 212/1/5
f 215/1/5 213/1/5 214/1/5
f 216/3/5 215/3/5 214/3/5
f 217/1/5 213/1/5 215/1/5
f 217/3/5 215/3/5 216/3/5
f 218/1/5 217/1/5 216/1/5
f 219/1/5 213/1/5 217/1/5
f 219/1/5 217/1/5 218/1/5
f 220/3/5 219/3/5 218/3/5
f 221/1/5 213/1/5 219/1/5
f 221/3/5 219/3/5 220/3/5
f 222/1/5 221/1/5 220/1/5
f 222/1/5 213/1/5 221/1/5
f 223/1/5 213/1/5 222/1/5
f 224/1/5 222/1/5 220/1/5
f 225/3/5 223/3/5 222/3/5
f 225/1/5 222/1/5 224/1/5
f 226/1/5 213/1/5 223/1/5
f 226/3/5 223/3/5 225/3/5
f 227/1/5 213/1/5 226/1/5
f 231/2/5 229/2/5 228/2/5
f 232/2/5 229/2/5 231/2/5
f 233/2/5 229/2/5 232/2/5
f 235/2/5 231/2/5 230/2/5
f 236/2/5 234/2/5 233/2/5
f 237/2/5 235/2/5 230/2/5
f 238/2/5 234/2/5 236/2/5
f 239/2/5 234/2/5 238/2/5
f 240/2/5 237/2/5 230/2/5
f 241/2/5 237/2/5 240/2/5
f 244/2/5 234/2/5 239/2/5
f 245/2/5 234/2/5 244/2/5
f 246/2/5 243/2/5 242/2/5
f 246/2/5 244/2/5 243/2/5
f 246/2/5 242/2/5 241/2/5
f 247/2/5 244/2/5 246/2/5
f 248/2/6 249/2/6 251/2/6
f 251/2/6 249/2/6 252/2/6
f 252/2/6 249/2/6 253/2/6
f 253/2/6 249/2/6 254/2/6
f 250/2/6 251/2/6 256/2/6
f 254/2/6 255/2/6 257/2/6
f 250/2/6 256/2/6 258/2/6
f 250/2/6 258/2/6 259/2/6
f 250/2/6 259/2/6 260/2/6
f 250/2/6 260/2/6 261/2/6
f 250/2/6 261/2/6 262/2/6
f 262/2/6 261/2/6 263/2/6
f 257/2/6 255/2/6 266/2/6
f 266/2/6 255/2/6 267/2/6
f 264/2/6 265/2/6 268/2/6
f 265/2/6 266/2/6 268/2/6
f 263/2/6 264/2/6 268/2/6
f 268/2/6 266/2/6 269/2/6
f 270/3/6 271/3/6 273/3/6
f 271/1/6 272/1/6 274/1/6
f 273/3/6 271/3/6 274/3/6
f 273/1/6 274/1/6 275/1/6
f 274/1/6 272/1/6 275/1/6
f 275/1/6 272/1/6 276/1/6
f 273/1/6 275/1/6 277/1/6
f 275/3/6 276/3/6 277/3/6
f 276/1/6 272/1/6 278/1/6
f 277/3/6 276/3/6 278/3/6
f 278/1/6 272/1/6 279/1/6
f 273/1/6 277/1/6 280/1/6
f 277/1/6 278/1/6 280/1/6
f 280/1/6 278/1/6 281/1/6
f 273/1/6 280/1/6 282/1/6
f 280/3/6 281/3/6 282/3/6
f 281/1/6 278/1/6 283/1/6
f 282/3/6 281/3/6 283/3/6
f 273/1/6 282/1/6 284/1/6
f 282/1/6 283/1/6 284/1/6
f 284/1/6 283/1/6 285/1/6
f 278/3/6 279/3/6 286/3/6
f 285/1/6 283/1/6 286/1/6
f 283/1/6 278/1/6 286/1/6
f 286/3/6 279/3/6 287/3/6
f 285/1/6 286/1/6 288/1/6
f 286/1/6 287/1/6 288/1/6
f 288/1/6 287/1/6 289/1/6
f 284/3/6 285/3/6 290/3/6
f 285/1/6 288/1/6 291/1/6
f 290/3/6 285/3/6 291/3/6
f 288/3/6 289/3/6 292/3/6
f 291/1/6 288/1/6 292/1/6
f 292/3/6 289/3/6 293/3/6
f 294/2/6 295/2/6 296/2/6
f 296/2/6 295/2/6 297/2/6
f 294/2/6 296/2/6 298/2/6
f 297/2/6 295/2/6 299/2/6
f 294/2/6 298/2/6 300/2/6
f 298/2/6 299/2/6 300/2/6
f 299/2/6 295/2/6 301/2/6
f 300/2/6 299/2/6 301/2/6
